<svg width="100" height="24" viewBox="0 0 100 24" fill="none" xmlns="http://www.w3.org/2000/svg">
<path d="M5.8181 7.55258C6.7453 7.55258 7.4072 7.94318 7.7729 8.50648C7.9676 8.82368 8.1159 9.21508 8.1389 9.67778H11.1459C11.0974 8.67678 10.7541 7.67388 10.1679 6.91738C9.2886 5.81808 7.7488 4.91188 5.8181 4.91188C3.8866 4.91188 2.2734 5.84218 1.3941 6.91738C0.439699 8.11298 0 9.70178 0 11.5617C0 13.4178 0.439699 15.0066 1.3941 16.2048C2.2734 17.2814 3.8866 18.2092 5.8181 18.2092C7.7488 18.2092 9.2886 17.3044 10.1679 16.2048C10.7541 15.4482 11.0974 14.4456 11.1459 13.4419H8.1389C8.1159 13.9085 7.9676 14.2985 7.7729 14.6174C7.4072 15.1778 6.7453 15.5698 5.8181 15.5698C4.9879 15.5698 4.3759 15.2033 3.9597 14.7617C3.2259 13.9555 3.1045 12.7587 3.1045 11.5617C3.1045 10.3637 3.2259 9.14138 3.9597 8.33578C4.3759 7.89418 4.9879 7.55258 5.8181 7.55258ZM12.3449 3.46898H15.622V0.317785H12.3449V3.46898ZM12.4436 17.9405H15.5489V5.23048H12.4436V17.9405ZM20.2893 7.13538L20.0208 5.23018H17.4311V17.9402H20.5107V11.5359C20.5107 9.48328 21.6343 7.94268 23.7864 7.94268C24.1282 7.94268 24.4953 7.99308 24.8363 8.06568V5.13298C24.5174 5.08338 24.2014 5.05978 23.8836 5.05978C22.3923 5.05978 20.8766 5.67068 20.2893 7.13538ZM36.0074 16.5719C34.8106 15.7411 33.1492 15.717 31.8779 15.717H29.7743C29.1399 15.717 28.3808 15.5463 28.3808 14.7872C28.3808 14.3711 28.7238 14.0542 29.0163 13.8824C29.6513 14.1038 30.3622 14.2254 31.0697 14.2254C33.8077 14.2254 36.2517 12.5138 36.2517 9.60578C36.2517 8.75078 36.0074 7.99278 35.5924 7.30828C35.7871 6.69738 36.4221 6.50118 37.133 6.50118C37.2042 6.50118 37.3028 6.52558 37.376 6.52558V4.15558C37.1801 4.10509 36.7424 4.10509 36.5451 4.10509C35.4711 4.10509 34.4931 4.59439 33.9554 5.69388C33.1243 5.20608 32.1222 4.91128 31.0697 4.91128C28.2101 4.91128 25.8631 6.54968 25.8631 9.58218C25.8631 10.876 26.3529 11.929 27.1335 12.7097C26.1085 13.3461 25.6201 14.1999 25.6201 15.2767C25.6201 16.1062 26.0844 17.0124 26.8906 17.4501C25.9127 17.9399 25.3763 18.9428 25.3763 20.0423C25.3763 21.2391 25.9382 22.1454 26.9161 22.8294C28.2359 23.7572 29.8715 23.8799 31.4133 23.8799C34.2474 23.8799 37.5472 22.9751 37.5472 19.6288C37.5472 18.4065 37.1084 17.3273 36.0074 16.5719ZM31.0697 7.20959C32.4641 7.20959 33.3202 8.21168 33.3202 9.58218C33.3202 10.9497 32.4641 11.929 31.0697 11.929C29.6765 11.929 28.8213 10.9497 28.8213 9.58218C28.8213 8.21168 29.6765 7.20959 31.0697 7.20959ZM31.29 21.4605C30.0918 21.4605 28.0888 21.3131 28.0888 19.7013C28.0888 18.8926 28.5761 18.3319 29.2374 18.136H31.6335C32.7821 18.136 34.6641 18.136 34.6641 19.7013C34.6641 21.3863 32.5117 21.4605 31.29 21.4605ZM41.705 7.13538L41.4343 5.23018H38.8443V17.9402H41.9236V11.5359C41.9236 9.48328 43.0495 7.94268 45.1996 7.94268C45.5412 7.94268 45.9102 7.99308 46.2507 8.06568V5.13298C45.9329 5.08338 45.6143 5.05978 45.2968 5.05978C43.8052 5.05978 42.291 5.67068 41.705 7.13538ZM61.651 4.00788V5.23018H59.5015V7.74788H61.651V17.9402H64.7076V7.74788H68.1044V5.23018H64.7076V4.05778C64.7076 3.15298 65.2703 2.51768 66.3704 2.51768C67.176 2.51768 67.7364 2.59088 68.3745 2.71388V0.268984C67.4215 0.0730839 66.8583 -1.71661e-05 65.979 -1.71661e-05C63.241 -1.71661e-05 61.651 1.66138 61.651 4.00788ZM70.0841 3.51748H73.3598V0.316885H70.0841V3.51748ZM70.1827 17.9405H73.2864V5.23048H70.1827V17.9405ZM81.0862 7.55258C82.0145 7.55258 82.6764 7.94318 83.0435 8.50648C83.238 8.82368 83.3845 9.21508 83.4086 9.67778H86.4165C86.3669 8.67678 86.025 7.67388 85.4371 6.91738C84.5567 5.81808 83.018 4.91188 81.0862 4.91188C79.1569 4.91188 77.5426 5.84218 76.6627 6.91738C75.7089 8.11298 75.2692 9.70178 75.2692 11.5617C75.2692 13.4178 75.7089 15.0066 76.6627 16.2048C77.5426 17.2814 79.1569 18.2092 81.0862 18.2092C83.018 18.2092 84.5567 17.3044 85.4371 16.2048C86.025 15.4482 86.3669 14.4456 86.4165 13.4419H83.4086C83.3845 13.9085 83.238 14.2985 83.0435 14.6174C82.6764 15.1778 82.0145 15.5698 81.0862 15.5698C80.2565 15.5698 79.6451 15.2033 79.2304 14.7617C78.4959 13.9555 78.3737 12.7587 78.3737 11.5617C78.3737 10.3637 78.4959 9.14138 79.2304 8.33578C79.6451 7.89418 80.2565 7.55258 81.0862 7.55258ZM99.322 15.5939C98.8093 15.5939 98.6145 15.3751 98.6145 14.7878V10.0689C98.6145 9.21508 98.5641 8.31148 98.2469 7.50299C97.5144 5.59638 95.6563 4.91188 93.4796 4.91188C90.6443 4.91188 88.3707 6.18258 88.2023 9.04388H91.1577C91.2322 7.86978 92.0625 7.23488 93.4796 7.23488C95.2155 7.23488 95.6316 8.03988 95.6316 9.23868V10.0193L91.8927 10.2892C89.4731 10.4598 87.5894 11.8539 87.5894 14.2755C87.5894 16.3519 89.1547 18.2582 92.1853 18.2582C93.9929 18.2582 95.4604 17.3775 96.0463 16.3519C96.1438 17.3044 96.8789 18.1366 98.1984 18.1366C98.932 18.1366 99.2004 18.013 99.7127 17.7942V15.5463C99.7127 15.5463 99.5179 15.5939 99.322 15.5939ZM95.6316 12.8815C95.6316 14.7617 94.2871 15.7901 92.38 15.7901C91.4281 15.7901 90.5712 15.1778 90.5712 14.1999C90.5712 13.1749 91.4752 12.6116 92.4049 12.5385L95.6316 12.2927V12.8815ZM58.9363 15.5965C58.4255 15.5965 58.2319 15.3777 58.2319 14.7863V10.0715C58.2319 9.21318 58.1817 8.30888 57.8642 7.50608C57.4291 6.36658 56.5949 5.66218 55.5293 5.28288C54.8062 5.02159 53.9779 4.90898 53.0938 4.90898C52.4968 4.90898 51.9236 4.96519 51.3873 5.08928C51.145 5.17089 50.8955 5.23899 50.6407 5.29449H50.6285C49.5125 5.69958 48.6417 6.41619 48.187 7.48118C47.9812 7.93588 47.8562 8.45858 47.8199 9.04388H50.7779C50.8278 8.15919 51.3131 7.58689 52.1479 7.35649C52.4288 7.27538 52.7397 7.23878 53.0938 7.23878C54.8323 7.23878 55.2493 8.04188 55.2493 9.23718V10.0219L51.5064 10.2889C49.0899 10.4581 47.2031 11.8525 47.2031 14.2755C47.2031 16.3497 48.7724 18.2554 51.8057 18.2554C53.6111 18.2554 55.0752 17.3772 55.66 16.3497C55.7606 17.3015 56.4948 18.1369 57.8146 18.1369C58.5496 18.1369 58.8181 18.0122 59.3275 17.7942V15.5469C59.3275 15.5469 59.1356 15.5965 58.9363 15.5965ZM55.2493 12.88C55.2493 14.7608 53.9039 15.7884 51.9976 15.7884C51.0458 15.7884 50.1854 15.1789 50.1854 14.201C50.1854 13.1732 51.0888 12.6127 52.0231 12.5382L55.2493 12.2953V12.88ZM57.8753 2.98738L51.7448 4.25618L51.3383 2.29778L57.4691 1.02748L57.8753 2.98738Z" fill="#2C2E35"/>
</svg>
